<mxfile host="app.diagrams.net" modified="2023-10-26T04:28:05.930Z" agent="Mozilla/5.0 (Windows NT 10.0; Win64; x64) AppleWebKit/537.36 (KHTML, like Gecko) Chrome/114.0.5735.289 Safari/537.36" version="22.0.8" etag="4b72k8CTfPEG3PnCeUhB" type="github">
  <diagram name="第 1 页" id="5FUy7w0jhCVuNqALqfMN">
    <mxGraphModel>
      <root>
        <mxCell id="0" />
        <mxCell id="1" parent="0" />
      </root>
    </mxGraphModel>
  </diagram>
</mxfile>
